<?xml version="1.0" encoding="UTF-8" standalone="no"?>
<!-- Created with Inkscape (http://www.inkscape.org/) -->

<svg
   width="46.257465mm"
   height="46.257465mm"
   viewBox="0 0 174.83137 174.83137"
   version="1.1"
   id="svg1"
   xmlns:xlink="http://www.w3.org/1999/xlink"
   xmlns="http://www.w3.org/2000/svg"
   xmlns:svg="http://www.w3.org/2000/svg"
   xmlns:rdf="http://www.w3.org/1999/02/22-rdf-syntax-ns#"
   xmlns:cc="http://creativecommons.org/ns#"
   xmlns:dc="http://purl.org/dc/elements/1.1/">
  <title
     id="title1">templates</title>
  <defs
     id="defs1">
    <linearGradient
       id="linearGradient1">
      <stop
         style="stop-color:#1b675d;stop-opacity:1;"
         offset="0"
         id="stop1" />
      <stop
         style="stop-color:#a4bc68;stop-opacity:1;"
         offset="1"
         id="stop4" />
    </linearGradient>
    <linearGradient
       id="linearGradient8">
      <stop
         style="stop-color:#4f8d17;stop-opacity:0.70411986;"
         offset="0"
         id="stop8" />
      <stop
         style="stop-color:#2c5600;stop-opacity:0.67790264;"
         offset="1"
         id="stop9" />
    </linearGradient>
    <linearGradient
       id="linearGradient7">
      <stop
         style="stop-color:#00ff00;stop-opacity:1;"
         offset="0"
         id="stop6" />
      <stop
         style="stop-color:#3d0061;stop-opacity:0.29213482;"
         offset="0.61858189"
         id="stop7" />
    </linearGradient>
    <linearGradient
       id="linearGradient2">
      <stop
         style="stop-color:#93da00;stop-opacity:1;"
         offset="0"
         id="stop2" />
      <stop
         style="stop-color:#007e00;stop-opacity:1;"
         offset="1"
         id="stop3" />
    </linearGradient>
    <color-profile
       name="Epson-IJ-Printer-07"
       xlink:href="file:///C:/WINDOWS/system32/spool/drivers/color/Epson%20IJ%20Printer%2007.icc"
       id="color-profile2" />
    <linearGradient
       xlink:href="#linearGradient2"
       id="linearGradient3"
       x1="400.71127"
       y1="397.92416"
       x2="511.65305"
       y2="535.7381"
       gradientUnits="userSpaceOnUse" />
    <linearGradient
       xlink:href="#linearGradient7"
       id="linearGradient4"
       gradientUnits="userSpaceOnUse"
       x1="431.52283"
       y1="348.89124"
       x2="504.08734"
       y2="546.83789"
       gradientTransform="translate(-2.0928005e-4,2.6092133e-4)" />
    <linearGradient
       xlink:href="#linearGradient8"
       id="linearGradient9"
       x1="354.98724"
       y1="575.13043"
       x2="503.11145"
       y2="374.17322"
       gradientUnits="userSpaceOnUse" />
    <linearGradient
       xlink:href="#linearGradient1"
       id="linearGradient5"
       x1="392.87701"
       y1="561.22235"
       x2="527.75024"
       y2="426.83868"
       gradientUnits="userSpaceOnUse"
       gradientTransform="matrix(1.090687,0,0,1.090687,-42.954153,-43.627266)" />
  </defs>
  <g
     id="layer1"
     transform="matrix(0.87989556,0,0,0.87989556,-329.34917,-335.88008)">
    <circle
       style="fill:url(#linearGradient5);fill-opacity:1;stroke:none;stroke-width:15.6539"
       id="path9"
       cx="473.65265"
       cy="481.07501"
       r="87.415688" />
    <g
       id="g10"
       transform="matrix(1,0,0,0.96962581,11.831011,30.851314)">
      <path
         id="rect2"
         style="fill:url(#linearGradient3);fill-opacity:1;stroke-width:13"
         d="m 525.5039,374.17322 c 25.34255,83.35064 -27.3295,196.04949 -110.71114,168.40126 0,0 -18.30353,17.24069 -28.77749,10.01727 l -6.50108,-9.39046 c 12.85918,4.3067 23.68357,-7.98051 23.68357,-7.98051 C 362.26451,429.66462 520.08728,414.14504 525.5039,374.17322 Z" />
      <path
         d="m 525.5037,374.17409 c -0.14964,1.10423 -0.41617,2.18849 -0.79102,3.25781 -18.00193,74.54591 -32.08877,153.18724 -109.91992,165.14258 83.38164,27.64823 136.05349,-85.04975 110.71094,-168.40039 z"
         style="fill:url(#linearGradient4);stroke-width:13"
         id="path5" />
      <path
         id="path7"
         style="fill:url(#linearGradient9);fill-opacity:1;stroke:none;stroke-width:13"
         d="m 523.21876,383.65626 c -6.35921,18.5718 -16.79743,39.00864 -29.84961,59.01953 -5.53766,-6.22155 -2.08282,-16.04042 -3.08008,-24.07812 -2.58728,11.85855 -6.34118,23.51081 -5.07812,36.04883 -6.56756,9.23668 -13.64218,18.27963 -21.07422,26.89453 -8.81084,-2.91248 -9.26569,-17.16334 -13.76172,-25.93164 2.09186,11.22763 2.43793,23.23156 7.28125,33.23632 -7.45758,8.16696 -15.21662,15.85973 -23.13477,22.85938 -15.59984,-14.1309 -15.12864,-26.92183 -20.43945,-40.19531 1.45864,17.91561 5.78883,33.4387 12.96485,46.58984 -7.89511,6.44474 -15.85707,12.39998 -23.84961,17.1211 0,0 -10.82442,12.28716 -23.6836,7.98046 l 6.50195,9.39063 c 10.47396,7.22342 28.77735,-10.01758 28.77735,-10.01758 9.72231,-7.62855 21.47511,-18.48181 33.65625,-31.58984 l 18.26953,-1.61524 c 4.59576,-3.31916 -13.19965,-3.93522 -13.20898,-3.93554 29.40784,-32.8662 60.00408,-77.91525 69.70898,-121.77735 z" />
    </g>
  </g>
  <metadata
     id="metadata1">
    <rdf:RDF>
      <cc:Work
         rdf:about="">
        <dc:title>templates</dc:title>
      </cc:Work>
    </rdf:RDF>
  </metadata>
</svg>
